<?xml version="1.0" standalone="no"?><!DOCTYPE svg PUBLIC "-//W3C//DTD SVG 1.1//EN" "http://www.w3.org/Graphics/SVG/1.1/DTD/svg11.dtd"><svg t="1631858670400" class="icon" viewBox="0 0 1024 1024" version="1.1" xmlns="http://www.w3.org/2000/svg" p-id="2859" xmlns:xlink="http://www.w3.org/1999/xlink" width="200" height="200"><defs><style type="text/css"></style></defs><path d="M512 0a512 512 0 1 0 512 512A512 512 0 0 0 512 0z m0 938.666667a426.666667 426.666667 0 1 1 426.666667-426.666667 426.666667 426.666667 0 0 1-426.666667 426.666667z" p-id="2860"></path><path d="M682.666667 397.226667h-85.333334l34.133334-42.666667a45.226667 45.226667 0 0 0 8.533333-26.026667 42.666667 42.666667 0 0 0-76.8-25.6L512 368.64l-51.2-67.413333a42.666667 42.666667 0 0 0-76.8 25.6 42.666667 42.666667 0 0 0 8.533333 25.6l34.133334 44.8H341.333333a42.666667 42.666667 0 0 0 0 85.333333h128v49.92H384a42.666667 42.666667 0 0 0 0 85.333333h85.333333v93.013334a42.666667 42.666667 0 0 0 85.333334 0v-93.013334h85.333333a42.666667 42.666667 0 0 0 0-85.333333h-85.333333v-49.92h128a42.666667 42.666667 0 0 0 0-85.333333z" p-id="2861"></path></svg>