<?xml version="1.0" standalone="no"?><!DOCTYPE svg PUBLIC "-//W3C//DTD SVG 1.1//EN" "http://www.w3.org/Graphics/SVG/1.1/DTD/svg11.dtd"><svg t="1631858712664" class="icon" viewBox="0 0 1024 1024" version="1.1" xmlns="http://www.w3.org/2000/svg" p-id="3697" xmlns:xlink="http://www.w3.org/1999/xlink" width="200" height="200"><defs><style type="text/css"></style></defs><path d="M912 842.666667H186.666667a5.333333 5.333333 0 0 1-5.333334-5.333334V112a5.333333 5.333333 0 0 0-5.333333-5.333333H112a5.333333 5.333333 0 0 0-5.333333 5.333333v800a5.333333 5.333333 0 0 0 5.333333 5.333333h800a5.333333 5.333333 0 0 0 5.333333-5.333333v-64a5.333333 5.333333 0 0 0-5.333333-5.333333z" p-id="3698"></path><path d="M271.2 181.76m5.333333 0l64 0q5.333333 0 5.333334 5.333333l0 575.626667q0 5.333333-5.333334 5.333333l-64 0q-5.333333 0-5.333333-5.333333l0-575.626667q0-5.333333 5.333333-5.333333Z" p-id="3699"></path><path d="M433.333333 404.693333m5.333334 0l64 0q5.333333 0 5.333333 5.333334l0 352.693333q0 5.333333-5.333333 5.333333l-64 0q-5.333333 0-5.333334-5.333333l0-352.693333q0-5.333333 5.333334-5.333334Z" p-id="3700"></path><path d="M595.52 285.813333m5.333333 0l64 0q5.333333 0 5.333334 5.333334l0 471.573333q0 5.333333-5.333334 5.333333l-64 0q-5.333333 0-5.333333-5.333333l0-471.573333q0-5.333333 5.333333-5.333334Z" p-id="3701"></path><path d="M757.706667 488.48m5.333333 0l64 0q5.333333 0 5.333333 5.333333l0 268.906667q0 5.333333-5.333333 5.333333l-64 0q-5.333333 0-5.333333-5.333333l0-268.906667q0-5.333333 5.333333-5.333333Z" p-id="3702"></path></svg>